<?xml version="1.0" encoding="utf-8"?>
<!-- Generator: Adobe Illustrator 16.2.1, SVG Export Plug-In . SVG Version: 6.00 Build 0)  -->
<!DOCTYPE svg PUBLIC "-//W3C//DTD SVG 1.1//EN" "http://www.w3.org/Graphics/SVG/1.1/DTD/svg11.dtd">
<svg version="1.1" id="Facial_Tissue" xmlns="http://www.w3.org/2000/svg" xmlns:xlink="http://www.w3.org/1999/xlink" x="0px"
	 y="0px" width="96px" height="96px" viewBox="0 0 96 96" enable-background="new 0 0 96 96" xml:space="preserve">
<g id="box">
	<path fill="#231F20" d="M64.195,12.067c-1.08,3.764-1.414,9.125,0.633,15.256c1.391,0.203,2.625,0.619,3.57,1.328
		c3.33,2.497,2.32,7.81-3.299,11.322L44.38,52.922c-5.62,3.511-13.193,3.339-16.915-0.383c-1.844-1.844-2.328-4.106-1.63-6.278
		c-2.935-3.812-6.511-7.412-10.261-10.128L0,43.922v16l32,32l64-40v-16L64.195,12.067z"/>
</g>
<g id="tissue">
	<path fill="#231F20" d="M31.141,50.352c1.122,0.698,2.667,1.097,4.425,1.097c2.338,0,4.716-0.683,6.695-1.92l7.499-4.689
		c-2.203-8.615-6.234-19.92-13.01-24.917c2-3,1.489-4.245,3.594-6.044c8.401,14.7,11.182,23.33,11.938,29.388l10.695-6.685
		c1.236-0.773,2.055-1.607,2.58-2.383C57.391,18.88,60.678,7.247,64,3.922c-36,0-24,16-36,20s-20,4-20,4
		c9.823,2.456,18.122,13.945,23.081,22.461L31.141,50.352z"/>
</g>
</svg>
